<svg width="270" height="67" viewBox="0 0 270 67" fill="none" xmlns="http://www.w3.org/2000/svg">
<rect x="0.5" y="0.5" width="269" height="66" rx="33" fill="black" stroke="#A6A6A6"/>
<path d="M98.7045 34.2632C98.7166 33.3433 98.9669 32.4414 99.4321 31.6413C99.8972 30.8412 100.562 30.1689 101.365 29.6871C100.855 28.9761 100.182 28.3909 99.4 27.9781C98.6178 27.5653 97.7479 27.3362 96.8592 27.3091C94.9635 27.1148 93.1258 28.4165 92.1598 28.4165C91.1751 28.4165 89.6878 27.3284 88.0862 27.3605C87.0502 27.3932 86.0406 27.6873 85.1557 28.2142C84.2708 28.7411 83.5407 29.4828 83.0367 30.367C80.8535 34.0574 82.482 39.481 84.5734 42.4641C85.6197 43.9248 86.8426 45.5565 88.4428 45.4986C90.0086 45.4352 90.5934 44.5238 92.4835 44.5238C94.3561 44.5238 94.9048 45.4986 96.5374 45.4618C98.2176 45.4352 99.2762 43.9946 100.286 42.5201C101.038 41.4793 101.616 40.3289 102 39.1117C101.024 38.7086 100.191 38.0339 99.6048 37.1717C99.0187 36.3095 98.7056 35.298 98.7045 34.2632Z" fill="white"/>
<path d="M95.6208 25.3471C96.5369 24.2734 96.9883 22.8934 96.879 21.5C95.4793 21.6435 94.1865 22.2966 93.258 23.3291C92.804 23.8335 92.4563 24.4203 92.2348 25.056C92.0132 25.6917 91.9222 26.3638 91.9669 27.0338C92.6669 27.0408 93.3595 26.8927 93.9924 26.6005C94.6253 26.3084 95.1821 25.8798 95.6208 25.3471Z" fill="white"/>
<path d="M112.646 21.727C113.33 21.727 113.921 21.856 114.419 22.114C114.923 22.366 115.307 22.729 115.571 23.203C115.841 23.677 115.976 24.235 115.976 24.877C115.976 25.519 115.841 26.077 115.571 26.551C115.307 27.019 114.923 27.379 114.419 27.631C113.921 27.877 113.33 28 112.646 28H110.693V21.727H112.646ZM112.646 27.325C113.456 27.325 114.074 27.112 114.5 26.686C114.926 26.254 115.139 25.651 115.139 24.877C115.139 24.097 114.923 23.488 114.491 23.05C114.065 22.612 113.45 22.393 112.646 22.393H111.512V27.325H112.646ZM119.207 28.081C118.745 28.081 118.325 27.976 117.947 27.766C117.575 27.556 117.281 27.259 117.065 26.875C116.855 26.485 116.75 26.035 116.75 25.525C116.75 25.021 116.858 24.577 117.074 24.193C117.296 23.803 117.596 23.506 117.974 23.302C118.352 23.092 118.775 22.987 119.243 22.987C119.711 22.987 120.134 23.092 120.512 23.302C120.89 23.506 121.187 23.8 121.403 24.184C121.625 24.568 121.736 25.015 121.736 25.525C121.736 26.035 121.622 26.485 121.394 26.875C121.172 27.259 120.869 27.556 120.485 27.766C120.101 27.976 119.675 28.081 119.207 28.081ZM119.207 27.361C119.501 27.361 119.777 27.292 120.035 27.154C120.293 27.016 120.5 26.809 120.656 26.533C120.818 26.257 120.899 25.921 120.899 25.525C120.899 25.129 120.821 24.793 120.665 24.517C120.509 24.241 120.305 24.037 120.053 23.905C119.801 23.767 119.528 23.698 119.234 23.698C118.934 23.698 118.658 23.767 118.406 23.905C118.16 24.037 117.962 24.241 117.812 24.517C117.662 24.793 117.587 25.129 117.587 25.525C117.587 25.927 117.659 26.266 117.803 26.542C117.953 26.818 118.151 27.025 118.397 27.163C118.643 27.295 118.913 27.361 119.207 27.361ZM129.383 23.068L127.844 28H126.998L125.81 24.085L124.622 28H123.776L122.228 23.068H123.065L124.199 27.208L125.423 23.068H126.26L127.457 27.217L128.573 23.068H129.383ZM132.599 22.978C133.199 22.978 133.685 23.161 134.057 23.527C134.429 23.887 134.615 24.409 134.615 25.093V28H133.805V25.21C133.805 24.718 133.682 24.343 133.436 24.085C133.19 23.821 132.854 23.689 132.428 23.689C131.996 23.689 131.651 23.824 131.393 24.094C131.141 24.364 131.015 24.757 131.015 25.273V28H130.196V23.068H131.015V23.77C131.177 23.518 131.396 23.323 131.672 23.185C131.954 23.047 132.263 22.978 132.599 22.978ZM136.772 21.34V28H135.953V21.34H136.772ZM140.319 28.081C139.857 28.081 139.437 27.976 139.059 27.766C138.687 27.556 138.393 27.259 138.177 26.875C137.967 26.485 137.862 26.035 137.862 25.525C137.862 25.021 137.97 24.577 138.186 24.193C138.408 23.803 138.708 23.506 139.086 23.302C139.464 23.092 139.887 22.987 140.355 22.987C140.823 22.987 141.246 23.092 141.624 23.302C142.002 23.506 142.299 23.8 142.515 24.184C142.737 24.568 142.848 25.015 142.848 25.525C142.848 26.035 142.734 26.485 142.506 26.875C142.284 27.259 141.981 27.556 141.597 27.766C141.213 27.976 140.787 28.081 140.319 28.081ZM140.319 27.361C140.613 27.361 140.889 27.292 141.147 27.154C141.405 27.016 141.612 26.809 141.768 26.533C141.93 26.257 142.011 25.921 142.011 25.525C142.011 25.129 141.933 24.793 141.777 24.517C141.621 24.241 141.417 24.037 141.165 23.905C140.913 23.767 140.64 23.698 140.346 23.698C140.046 23.698 139.77 23.767 139.518 23.905C139.272 24.037 139.074 24.241 138.924 24.517C138.774 24.793 138.699 25.129 138.699 25.525C138.699 25.927 138.771 26.266 138.915 26.542C139.065 26.818 139.263 27.025 139.509 27.163C139.755 27.295 140.025 27.361 140.319 27.361ZM143.618 25.516C143.618 25.012 143.72 24.571 143.924 24.193C144.128 23.809 144.407 23.512 144.761 23.302C145.121 23.092 145.52 22.987 145.958 22.987C146.39 22.987 146.765 23.08 147.083 23.266C147.401 23.452 147.638 23.686 147.794 23.968V23.068H148.622V28H147.794V27.082C147.632 27.37 147.389 27.61 147.065 27.802C146.747 27.988 146.375 28.081 145.949 28.081C145.511 28.081 145.115 27.973 144.761 27.757C144.407 27.541 144.128 27.238 143.924 26.848C143.72 26.458 143.618 26.014 143.618 25.516ZM147.794 25.525C147.794 25.153 147.719 24.829 147.569 24.553C147.419 24.277 147.215 24.067 146.957 23.923C146.705 23.773 146.426 23.698 146.12 23.698C145.814 23.698 145.535 23.77 145.283 23.914C145.031 24.058 144.83 24.268 144.68 24.544C144.53 24.82 144.455 25.144 144.455 25.516C144.455 25.894 144.53 26.224 144.68 26.506C144.83 26.782 145.031 26.995 145.283 27.145C145.535 27.289 145.814 27.361 146.12 27.361C146.426 27.361 146.705 27.289 146.957 27.145C147.215 26.995 147.419 26.782 147.569 26.506C147.719 26.224 147.794 25.897 147.794 25.525ZM149.7 25.516C149.7 25.012 149.802 24.571 150.006 24.193C150.21 23.809 150.489 23.512 150.843 23.302C151.203 23.092 151.605 22.987 152.049 22.987C152.433 22.987 152.79 23.077 153.12 23.257C153.45 23.431 153.702 23.662 153.876 23.95V21.34H154.704V28H153.876V27.073C153.714 27.367 153.474 27.61 153.156 27.802C152.838 27.988 152.466 28.081 152.04 28.081C151.602 28.081 151.203 27.973 150.843 27.757C150.489 27.541 150.21 27.238 150.006 26.848C149.802 26.458 149.7 26.014 149.7 25.516ZM153.876 25.525C153.876 25.153 153.801 24.829 153.651 24.553C153.501 24.277 153.297 24.067 153.039 23.923C152.787 23.773 152.508 23.698 152.202 23.698C151.896 23.698 151.617 23.77 151.365 23.914C151.113 24.058 150.912 24.268 150.762 24.544C150.612 24.82 150.537 25.144 150.537 25.516C150.537 25.894 150.612 26.224 150.762 26.506C150.912 26.782 151.113 26.995 151.365 27.145C151.617 27.289 151.896 27.361 152.202 27.361C152.508 27.361 152.787 27.289 153.039 27.145C153.297 26.995 153.501 26.782 153.651 26.506C153.801 26.224 153.876 25.897 153.876 25.525ZM160.639 28.081C160.177 28.081 159.757 27.976 159.379 27.766C159.007 27.556 158.713 27.259 158.497 26.875C158.287 26.485 158.182 26.035 158.182 25.525C158.182 25.021 158.29 24.577 158.506 24.193C158.728 23.803 159.028 23.506 159.406 23.302C159.784 23.092 160.207 22.987 160.675 22.987C161.143 22.987 161.566 23.092 161.944 23.302C162.322 23.506 162.619 23.8 162.835 24.184C163.057 24.568 163.168 25.015 163.168 25.525C163.168 26.035 163.054 26.485 162.826 26.875C162.604 27.259 162.301 27.556 161.917 27.766C161.533 27.976 161.107 28.081 160.639 28.081ZM160.639 27.361C160.933 27.361 161.209 27.292 161.467 27.154C161.725 27.016 161.932 26.809 162.088 26.533C162.25 26.257 162.331 25.921 162.331 25.525C162.331 25.129 162.253 24.793 162.097 24.517C161.941 24.241 161.737 24.037 161.485 23.905C161.233 23.767 160.96 23.698 160.666 23.698C160.366 23.698 160.09 23.767 159.838 23.905C159.592 24.037 159.394 24.241 159.244 24.517C159.094 24.793 159.019 25.129 159.019 25.525C159.019 25.927 159.091 26.266 159.235 26.542C159.385 26.818 159.583 27.025 159.829 27.163C160.075 27.295 160.345 27.361 160.639 27.361ZM166.648 22.978C167.248 22.978 167.734 23.161 168.106 23.527C168.478 23.887 168.664 24.409 168.664 25.093V28H167.854V25.21C167.854 24.718 167.731 24.343 167.485 24.085C167.239 23.821 166.903 23.689 166.477 23.689C166.045 23.689 165.7 23.824 165.442 24.094C165.19 24.364 165.064 24.757 165.064 25.273V28H164.245V23.068H165.064V23.77C165.226 23.518 165.445 23.323 165.721 23.185C166.003 23.047 166.312 22.978 166.648 22.978ZM173.4 23.743V26.65C173.4 26.89 173.451 27.061 173.553 27.163C173.655 27.259 173.832 27.307 174.084 27.307H174.687V28H173.949C173.493 28 173.151 27.895 172.923 27.685C172.695 27.475 172.581 27.13 172.581 26.65V23.743H171.942V23.068H172.581V21.826H173.4V23.068H174.687V23.743H173.4ZM178.127 22.978C178.499 22.978 178.835 23.059 179.135 23.221C179.435 23.377 179.669 23.614 179.837 23.932C180.011 24.25 180.098 24.637 180.098 25.093V28H179.288V25.21C179.288 24.718 179.165 24.343 178.919 24.085C178.673 23.821 178.337 23.689 177.911 23.689C177.479 23.689 177.134 23.824 176.876 24.094C176.624 24.364 176.498 24.757 176.498 25.273V28H175.679V21.34H176.498V23.77C176.66 23.518 176.882 23.323 177.164 23.185C177.452 23.047 177.773 22.978 178.127 22.978ZM185.936 25.345C185.936 25.501 185.927 25.666 185.909 25.84H181.967C181.997 26.326 182.162 26.707 182.462 26.983C182.768 27.253 183.137 27.388 183.569 27.388C183.923 27.388 184.217 27.307 184.451 27.145C184.691 26.977 184.859 26.755 184.955 26.479H185.837C185.705 26.953 185.441 27.34 185.045 27.64C184.649 27.934 184.157 28.081 183.569 28.081C183.101 28.081 182.681 27.976 182.309 27.766C181.943 27.556 181.655 27.259 181.445 26.875C181.235 26.485 181.13 26.035 181.13 25.525C181.13 25.015 181.232 24.568 181.436 24.184C181.64 23.8 181.925 23.506 182.291 23.302C182.663 23.092 183.089 22.987 183.569 22.987C184.037 22.987 184.451 23.089 184.811 23.293C185.171 23.497 185.447 23.779 185.639 24.139C185.837 24.493 185.936 24.895 185.936 25.345ZM185.09 25.174C185.09 24.862 185.021 24.595 184.883 24.373C184.745 24.145 184.556 23.974 184.316 23.86C184.082 23.74 183.821 23.68 183.533 23.68C183.119 23.68 182.765 23.812 182.471 24.076C182.183 24.34 182.018 24.706 181.976 25.174H185.09Z" fill="white"/>
<path d="M118.802 41.21H113.33L112.322 44H110.594L115.13 31.526H117.02L121.538 44H119.81L118.802 41.21ZM118.334 39.878L116.066 33.542L113.798 39.878H118.334ZM124.683 35.954C125.007 35.39 125.487 34.922 126.123 34.55C126.771 34.166 127.521 33.974 128.373 33.974C129.249 33.974 130.041 34.184 130.749 34.604C131.469 35.024 132.033 35.618 132.441 36.386C132.849 37.142 133.053 38.024 133.053 39.032C133.053 40.028 132.849 40.916 132.441 41.696C132.033 42.476 131.469 43.082 130.749 43.514C130.041 43.946 129.249 44.162 128.373 44.162C127.533 44.162 126.789 43.976 126.141 43.604C125.505 43.22 125.019 42.746 124.683 42.182V48.68H123.045V34.136H124.683V35.954ZM131.379 39.032C131.379 38.288 131.229 37.64 130.929 37.088C130.629 36.536 130.221 36.116 129.705 35.828C129.201 35.54 128.643 35.396 128.031 35.396C127.431 35.396 126.873 35.546 126.357 35.846C125.853 36.134 125.445 36.56 125.133 37.124C124.833 37.676 124.683 38.318 124.683 39.05C124.683 39.794 124.833 40.448 125.133 41.012C125.445 41.564 125.853 41.99 126.357 42.29C126.873 42.578 127.431 42.722 128.031 42.722C128.643 42.722 129.201 42.578 129.705 42.29C130.221 41.99 130.629 41.564 130.929 41.012C131.229 40.448 131.379 39.788 131.379 39.032ZM136.377 35.954C136.701 35.39 137.181 34.922 137.817 34.55C138.465 34.166 139.215 33.974 140.067 33.974C140.943 33.974 141.735 34.184 142.443 34.604C143.163 35.024 143.727 35.618 144.135 36.386C144.543 37.142 144.747 38.024 144.747 39.032C144.747 40.028 144.543 40.916 144.135 41.696C143.727 42.476 143.163 43.082 142.443 43.514C141.735 43.946 140.943 44.162 140.067 44.162C139.227 44.162 138.483 43.976 137.835 43.604C137.199 43.22 136.713 42.746 136.377 42.182V48.68H134.739V34.136H136.377V35.954ZM143.073 39.032C143.073 38.288 142.923 37.64 142.623 37.088C142.323 36.536 141.915 36.116 141.399 35.828C140.895 35.54 140.337 35.396 139.725 35.396C139.125 35.396 138.567 35.546 138.051 35.846C137.547 36.134 137.139 36.56 136.827 37.124C136.527 37.676 136.377 38.318 136.377 39.05C136.377 39.794 136.527 40.448 136.827 41.012C137.139 41.564 137.547 41.99 138.051 42.29C138.567 42.578 139.125 42.722 139.725 42.722C140.337 42.722 140.895 42.578 141.399 42.29C141.915 41.99 142.323 41.564 142.623 41.012C142.923 40.448 143.073 39.788 143.073 39.032ZM154.74 44.126C153.912 44.126 153.168 43.982 152.508 43.694C151.86 43.394 151.35 42.986 150.978 42.47C150.606 41.942 150.414 41.336 150.402 40.652H152.148C152.208 41.24 152.448 41.738 152.868 42.146C153.3 42.542 153.924 42.74 154.74 42.74C155.52 42.74 156.132 42.548 156.576 42.164C157.032 41.768 157.26 41.264 157.26 40.652C157.26 40.172 157.128 39.782 156.864 39.482C156.6 39.182 156.27 38.954 155.874 38.798C155.478 38.642 154.944 38.474 154.272 38.294C153.444 38.078 152.778 37.862 152.274 37.646C151.782 37.43 151.356 37.094 150.996 36.638C150.648 36.17 150.474 35.546 150.474 34.766C150.474 34.082 150.648 33.476 150.996 32.948C151.344 32.42 151.83 32.012 152.454 31.724C153.09 31.436 153.816 31.292 154.632 31.292C155.808 31.292 156.768 31.586 157.512 32.174C158.268 32.762 158.694 33.542 158.79 34.514H156.99C156.93 34.034 156.678 33.614 156.234 33.254C155.79 32.882 155.202 32.696 154.47 32.696C153.786 32.696 153.228 32.876 152.796 33.236C152.364 33.584 152.148 34.076 152.148 34.712C152.148 35.168 152.274 35.54 152.526 35.828C152.79 36.116 153.108 36.338 153.48 36.494C153.864 36.638 154.398 36.806 155.082 36.998C155.91 37.226 156.576 37.454 157.08 37.682C157.584 37.898 158.016 38.24 158.376 38.708C158.736 39.164 158.916 39.788 158.916 40.58C158.916 41.192 158.754 41.768 158.43 42.308C158.106 42.848 157.626 43.286 156.99 43.622C156.354 43.958 155.604 44.126 154.74 44.126ZM162.854 35.486V41.3C162.854 41.78 162.956 42.122 163.16 42.326C163.364 42.518 163.718 42.614 164.222 42.614H165.428V44H163.952C163.04 44 162.356 43.79 161.9 43.37C161.444 42.95 161.216 42.26 161.216 41.3V35.486H159.938V34.136H161.216V31.652H162.854V34.136H165.428V35.486H162.854ZM171.245 44.162C170.321 44.162 169.481 43.952 168.725 43.532C167.981 43.112 167.393 42.518 166.961 41.75C166.541 40.97 166.331 40.07 166.331 39.05C166.331 38.042 166.547 37.154 166.979 36.386C167.423 35.606 168.023 35.012 168.779 34.604C169.535 34.184 170.381 33.974 171.317 33.974C172.253 33.974 173.099 34.184 173.855 34.604C174.611 35.012 175.205 35.6 175.637 36.368C176.081 37.136 176.303 38.03 176.303 39.05C176.303 40.07 176.075 40.97 175.619 41.75C175.175 42.518 174.569 43.112 173.801 43.532C173.033 43.952 172.181 44.162 171.245 44.162ZM171.245 42.722C171.833 42.722 172.385 42.584 172.901 42.308C173.417 42.032 173.831 41.618 174.143 41.066C174.467 40.514 174.629 39.842 174.629 39.05C174.629 38.258 174.473 37.586 174.161 37.034C173.849 36.482 173.441 36.074 172.937 35.81C172.433 35.534 171.887 35.396 171.299 35.396C170.699 35.396 170.147 35.534 169.643 35.81C169.151 36.074 168.755 36.482 168.455 37.034C168.155 37.586 168.005 38.258 168.005 39.05C168.005 39.854 168.149 40.532 168.437 41.084C168.737 41.636 169.133 42.05 169.625 42.326C170.117 42.59 170.657 42.722 171.245 42.722ZM179.625 35.738C179.913 35.174 180.321 34.736 180.849 34.424C181.389 34.112 182.043 33.956 182.811 33.956V35.648H182.379C180.543 35.648 179.625 36.644 179.625 38.636V44H177.987V34.136H179.625V35.738ZM193.231 38.69C193.231 39.002 193.213 39.332 193.177 39.68H185.293C185.353 40.652 185.683 41.414 186.283 41.966C186.895 42.506 187.633 42.776 188.497 42.776C189.205 42.776 189.793 42.614 190.261 42.29C190.741 41.954 191.077 41.51 191.269 40.958H193.033C192.769 41.906 192.241 42.68 191.449 43.28C190.657 43.868 189.673 44.162 188.497 44.162C187.561 44.162 186.721 43.952 185.977 43.532C185.245 43.112 184.669 42.518 184.249 41.75C183.829 40.97 183.619 40.07 183.619 39.05C183.619 38.03 183.823 37.136 184.231 36.368C184.639 35.6 185.209 35.012 185.941 34.604C186.685 34.184 187.537 33.974 188.497 33.974C189.433 33.974 190.261 34.178 190.981 34.586C191.701 34.994 192.253 35.558 192.637 36.278C193.033 36.986 193.231 37.79 193.231 38.69ZM191.539 38.348C191.539 37.724 191.401 37.19 191.125 36.746C190.849 36.29 190.471 35.948 189.991 35.72C189.523 35.48 189.001 35.36 188.425 35.36C187.597 35.36 186.889 35.624 186.301 36.152C185.725 36.68 185.395 37.412 185.311 38.348H191.539Z" fill="white"/>
</svg>
