<svg width="270" height="67" viewBox="0 0 270 67" fill="none" xmlns="http://www.w3.org/2000/svg">
<rect x="0.5" y="0.5" width="269" height="66" rx="33" fill="black" stroke="#A6A6A6"/>
<path fill-rule="evenodd" clip-rule="evenodd" d="M83.5942 29.2746C83.98 28.9085 84.6054 28.9085 84.9912 29.2746L88.2226 32.3415C90.0979 31.405 92.2337 30.875 94.5 30.875C96.7662 30.875 98.9021 31.405 100.777 32.3415L104.009 29.2746C104.395 28.9085 105.02 28.9085 105.406 29.2746C105.792 29.6407 105.792 30.2343 105.406 30.6004L102.495 33.3627C105.834 35.6952 108 39.4513 108 43.6875C108 43.792 107.999 43.8961 107.996 44H81.0039C81.0013 43.8961 81 43.792 81 43.6875C81 39.4513 83.1662 35.6952 86.5047 33.3627L83.5942 30.6004C83.2084 30.2343 83.2084 29.6407 83.5942 29.2746ZM89.2317 39.625C89.9591 39.625 90.5488 39.0654 90.5488 38.375C90.5488 37.6846 89.9591 37.125 89.2317 37.125C88.5043 37.125 87.9146 37.6846 87.9146 38.375C87.9146 39.0654 88.5043 39.625 89.2317 39.625ZM101.085 38.375C101.085 39.0654 100.496 39.625 99.7683 39.625C99.0409 39.625 98.4512 39.0654 98.4512 38.375C98.4512 37.6846 99.0409 37.125 99.7683 37.125C100.496 37.125 101.085 37.6846 101.085 38.375Z" fill="#3CDB83"/>
<path d="M114.94 23.03C115.7 23.03 116.357 23.1733 116.91 23.46C117.47 23.74 117.897 24.1433 118.19 24.67C118.49 25.1967 118.64 25.8167 118.64 26.53C118.64 27.2433 118.49 27.8633 118.19 28.39C117.897 28.91 117.47 29.31 116.91 29.59C116.357 29.8633 115.7 30 114.94 30H112.77V23.03H114.94ZM114.94 29.25C115.84 29.25 116.527 29.0133 117 28.54C117.473 28.06 117.71 27.39 117.71 26.53C117.71 25.6633 117.47 24.9867 116.99 24.5C116.517 24.0133 115.833 23.77 114.94 23.77H113.68V29.25H114.94ZM123 30.07C122.354 30.07 121.764 29.92 121.23 29.62C120.697 29.3133 120.274 28.89 119.96 28.35C119.654 27.8033 119.5 27.19 119.5 26.51C119.5 25.83 119.654 25.22 119.96 24.68C120.274 24.1333 120.697 23.71 121.23 23.41C121.764 23.1033 122.354 22.95 123 22.95C123.654 22.95 124.247 23.1033 124.78 23.41C125.314 23.71 125.734 24.13 126.04 24.67C126.347 25.21 126.5 25.8233 126.5 26.51C126.5 27.1967 126.347 27.81 126.04 28.35C125.734 28.89 125.314 29.3133 124.78 29.62C124.247 29.92 123.654 30.07 123 30.07ZM123 29.28C123.487 29.28 123.924 29.1667 124.31 28.94C124.704 28.7133 125.01 28.39 125.23 27.97C125.457 27.55 125.57 27.0633 125.57 26.51C125.57 25.95 125.457 25.4633 125.23 25.05C125.01 24.63 124.707 24.3067 124.32 24.08C123.934 23.8533 123.494 23.74 123 23.74C122.507 23.74 122.067 23.8533 121.68 24.08C121.294 24.3067 120.987 24.63 120.76 25.05C120.54 25.4633 120.43 25.95 120.43 26.51C120.43 27.0633 120.54 27.55 120.76 27.97C120.987 28.39 121.294 28.7133 121.68 28.94C122.074 29.1667 122.514 29.28 123 29.28ZM136.462 23.03L134.442 30H133.422L131.802 24.39L130.122 30L129.112 30.01L127.162 23.03H128.132L129.652 28.94L131.332 23.03H132.352L133.952 28.92L135.482 23.03H136.462ZM142.938 30H142.028L138.368 24.45V30H137.458V23.02H138.368L142.028 28.56V23.02H142.938V30ZM145.399 29.26H147.839V30H144.489V23.03H145.399V29.26ZM151.965 30.07C151.318 30.07 150.728 29.92 150.195 29.62C149.662 29.3133 149.238 28.89 148.925 28.35C148.618 27.8033 148.465 27.19 148.465 26.51C148.465 25.83 148.618 25.22 148.925 24.68C149.238 24.1333 149.662 23.71 150.195 23.41C150.728 23.1033 151.318 22.95 151.965 22.95C152.618 22.95 153.212 23.1033 153.745 23.41C154.278 23.71 154.698 24.13 155.005 24.67C155.312 25.21 155.465 25.8233 155.465 26.51C155.465 27.1967 155.312 27.81 155.005 28.35C154.698 28.89 154.278 29.3133 153.745 29.62C153.212 29.92 152.618 30.07 151.965 30.07ZM151.965 29.28C152.452 29.28 152.888 29.1667 153.275 28.94C153.668 28.7133 153.975 28.39 154.195 27.97C154.422 27.55 154.535 27.0633 154.535 26.51C154.535 25.95 154.422 25.4633 154.195 25.05C153.975 24.63 153.672 24.3067 153.285 24.08C152.898 23.8533 152.458 23.74 151.965 23.74C151.472 23.74 151.032 23.8533 150.645 24.08C150.258 24.3067 149.952 24.63 149.725 25.05C149.505 25.4633 149.395 25.95 149.395 26.51C149.395 27.0633 149.505 27.55 149.725 27.97C149.952 28.39 150.258 28.7133 150.645 28.94C151.038 29.1667 151.478 29.28 151.965 29.28ZM160.786 28.45H157.746L157.186 30H156.226L158.746 23.07H159.796L162.306 30H161.346L160.786 28.45ZM160.526 27.71L159.266 24.19L158.006 27.71H160.526ZM165.575 23.03C166.335 23.03 166.991 23.1733 167.545 23.46C168.105 23.74 168.531 24.1433 168.825 24.67C169.125 25.1967 169.275 25.8167 169.275 26.53C169.275 27.2433 169.125 27.8633 168.825 28.39C168.531 28.91 168.105 29.31 167.545 29.59C166.991 29.8633 166.335 30 165.575 30H163.405V23.03H165.575ZM165.575 29.25C166.475 29.25 167.161 29.0133 167.635 28.54C168.108 28.06 168.345 27.39 168.345 26.53C168.345 25.6633 168.105 24.9867 167.625 24.5C167.151 24.0133 166.468 23.77 165.575 23.77H164.315V29.25H165.575ZM177.081 23.03V23.77H174.051V26.12H176.511V26.86H174.051V30H173.141V23.03H177.081ZM181.34 30.07C180.693 30.07 180.103 29.92 179.57 29.62C179.037 29.3133 178.613 28.89 178.3 28.35C177.993 27.8033 177.84 27.19 177.84 26.51C177.84 25.83 177.993 25.22 178.3 24.68C178.613 24.1333 179.037 23.71 179.57 23.41C180.103 23.1033 180.693 22.95 181.34 22.95C181.993 22.95 182.587 23.1033 183.12 23.41C183.653 23.71 184.073 24.13 184.38 24.67C184.687 25.21 184.84 25.8233 184.84 26.51C184.84 27.1967 184.687 27.81 184.38 28.35C184.073 28.89 183.653 29.3133 183.12 29.62C182.587 29.92 181.993 30.07 181.34 30.07ZM181.34 29.28C181.827 29.28 182.263 29.1667 182.65 28.94C183.043 28.7133 183.35 28.39 183.57 27.97C183.797 27.55 183.91 27.0633 183.91 26.51C183.91 25.95 183.797 25.4633 183.57 25.05C183.35 24.63 183.047 24.3067 182.66 24.08C182.273 23.8533 181.833 23.74 181.34 23.74C180.847 23.74 180.407 23.8533 180.02 24.08C179.633 24.3067 179.327 24.63 179.1 25.05C178.88 25.4633 178.77 25.95 178.77 26.51C178.77 27.0633 178.88 27.55 179.1 27.97C179.327 28.39 179.633 28.7133 180.02 28.94C180.413 29.1667 180.853 29.28 181.34 29.28ZM189.711 30L188.051 27.15H186.951V30H186.041V23.03H188.291C188.818 23.03 189.261 23.12 189.621 23.3C189.988 23.48 190.261 23.7233 190.441 24.03C190.621 24.3367 190.711 24.6867 190.711 25.08C190.711 25.56 190.571 25.9833 190.291 26.35C190.018 26.7167 189.605 26.96 189.051 27.08L190.801 30H189.711ZM186.951 26.42H188.291C188.785 26.42 189.155 26.3 189.401 26.06C189.648 25.8133 189.771 25.4867 189.771 25.08C189.771 24.6667 189.648 24.3467 189.401 24.12C189.161 23.8933 188.791 23.78 188.291 23.78H186.951V26.42ZM117.988 42.512H114.844L114.34 44H112.192L115.24 35.576H117.616L120.664 44H118.492L117.988 42.512ZM117.46 40.928L116.416 37.844L115.384 40.928H117.46ZM129.128 44H127.076L123.644 38.804V44H121.592V35.576H123.644L127.076 40.796V35.576H129.128V44ZM133.771 35.576C134.659 35.576 135.435 35.752 136.099 36.104C136.763 36.456 137.275 36.952 137.635 37.592C138.003 38.224 138.187 38.956 138.187 39.788C138.187 40.612 138.003 41.344 137.635 41.984C137.275 42.624 136.759 43.12 136.087 43.472C135.423 43.824 134.651 44 133.771 44H130.615V35.576H133.771ZM133.639 42.224C134.415 42.224 135.019 42.012 135.451 41.588C135.883 41.164 136.099 40.564 136.099 39.788C136.099 39.012 135.883 38.408 135.451 37.976C135.019 37.544 134.415 37.328 133.639 37.328H132.667V42.224H133.639ZM143.63 44L141.878 40.82H141.386V44H139.334V35.576H142.778C143.442 35.576 144.006 35.692 144.47 35.924C144.942 36.156 145.294 36.476 145.526 36.884C145.758 37.284 145.874 37.732 145.874 38.228C145.874 38.788 145.714 39.288 145.394 39.728C145.082 40.168 144.618 40.48 144.002 40.664L145.946 44H143.63ZM141.386 39.368H142.658C143.034 39.368 143.314 39.276 143.498 39.092C143.69 38.908 143.786 38.648 143.786 38.312C143.786 37.992 143.69 37.74 143.498 37.556C143.314 37.372 143.034 37.28 142.658 37.28H141.386V39.368ZM151.146 44.084C150.354 44.084 149.626 43.9 148.962 43.532C148.306 43.164 147.782 42.652 147.39 41.996C147.006 41.332 146.814 40.588 146.814 39.764C146.814 38.94 147.006 38.2 147.39 37.544C147.782 36.888 148.306 36.376 148.962 36.008C149.626 35.64 150.354 35.456 151.146 35.456C151.938 35.456 152.662 35.64 153.318 36.008C153.982 36.376 154.502 36.888 154.878 37.544C155.262 38.2 155.454 38.94 155.454 39.764C155.454 40.588 155.262 41.332 154.878 41.996C154.494 42.652 153.974 43.164 153.318 43.532C152.662 43.9 151.938 44.084 151.146 44.084ZM151.146 42.212C151.818 42.212 152.354 41.988 152.754 41.54C153.162 41.092 153.366 40.5 153.366 39.764C153.366 39.02 153.162 38.428 152.754 37.988C152.354 37.54 151.818 37.316 151.146 37.316C150.466 37.316 149.922 37.536 149.514 37.976C149.114 38.416 148.914 39.012 148.914 39.764C148.914 40.508 149.114 41.104 149.514 41.552C149.922 41.992 150.466 42.212 151.146 42.212ZM158.648 35.576V44H156.596V35.576H158.648ZM163.291 35.576C164.179 35.576 164.955 35.752 165.619 36.104C166.283 36.456 166.795 36.952 167.155 37.592C167.523 38.224 167.707 38.956 167.707 39.788C167.707 40.612 167.523 41.344 167.155 41.984C166.795 42.624 166.279 43.12 165.607 43.472C164.943 43.824 164.171 44 163.291 44H160.135V35.576H163.291ZM163.159 42.224C163.935 42.224 164.539 42.012 164.971 41.588C165.403 41.164 165.619 40.564 165.619 39.788C165.619 39.012 165.403 38.408 164.971 37.976C164.539 37.544 163.935 37.328 163.159 37.328H162.187V42.224H163.159Z" fill="white"/>
</svg>
