<?xml version="1.0" encoding="UTF-8"?>
<svg id="Capa_1" xmlns="http://www.w3.org/2000/svg" version="1.1" viewBox="0 0 4659.16 1530.01">
  <defs>
    <style>
      .st0 {
        fill: none;
        stroke: #dbdbdb;
        stroke-width: 12;
        stroke-linecap: round;
        stroke-linejoin: round;
        stroke-dasharray: 15000;
        stroke-dashoffset: 15000;
        animation: draw 4s ease forwards;
      }

      .st0-fill {
        fill: #dbdbdb;
        opacity: 0;
        animation: fadeIn 1s ease forwards;
        animation-delay: 3.5s;
      }

      @keyframes draw {
        to {
          stroke-dashoffset: 0;
        }
      }

      @keyframes fadeIn {
        to {
          opacity: 1;
        }
      }
    </style>
  </defs>
  <!-- Stroke animation (writing effect) -->
  <path class="st0" d="M2269.73,566.04c8.17,1.9,5.53-1.45,7.59-4.45,86.71-125.88,203.81-236.38,371.81-195.83,286.37,69.12,66.27,499.61,84.65,683.04,12.35,123.23,198.73,24.02,240.34-32.2-34.01-291.93,169.72-604.78,465.27-657.61,89.22-15.95,237.17-9.59,325.46,13.58,107.4,28.19,49.65,132.04,30.99,202.97-33.66,127.91-65.2,289.52-40.38,420.58,15.81,83.5,53.97,113.43,133.66,132.47,119.13,28.46,331.46,35.23,443.73-16.04,51.94-23.72,85.09-67.15,128.45-89.92,98.32-51.63,170.37,59.97,92.88,140.64-159.39,165.93-533.17,162.25-739.57,108.08-162.71-42.71-194.07-106.56-227.79-260.18-1.04-4.73,2.93-9.88-5.15-8.37-51.01,80.9-108.81,167.12-193.94,215.51-113.77,64.66-262.73,57.95-345.14-51.61-97.26,81.5-266.93,143.9-383.62,69.51-186.11-118.65-6.37-474.66-24.2-651.37-6.42-63.62-59.29-78.36-113.45-58.93-86.72,31.12-171.35,181.82-207.85,263-59.42,132.14-91.1,274.18-128.95,413.55-33.21,71.82-147.7,62.43-166.42-14.6-7.52-30.93-1.27-62.77,3.55-93.68,21.92-140.75,75.48-293.09,84.27-434.35,2.19-35.15,8.89-109.71-39.14-111.12-65.69-1.93-170.12,62.65-218.25,105.87,26.68,195.37-67.62,434.09-232.84,545.44-171.79,115.77-414.87,97.42-536.09-80.18-70.4-103.15-79.38-235.49-60.39-355.94-83.3,43.96-167.79,85.79-257.11,116.48,15.07,104,9.93,217.58-65.2,298.2-133.7,143.47-490.87,126.23-531.49-96.49-38.56-211.43,220.79-260.79,371.04-301.13-74.74-136.2-244.81-253.98-235.55-424.89,4.47-82.51,75.88-147.5,158.98-121.18,59.96,18.99,70.9,75.12,66.28,131.5-2.45,29.89-17.23,58-13.29,88.48,5.6,43.4,99.1,143.26,128.72,185.16,22.71,32.11,42.52,66.13,63.63,99.25,124.96-40.65,257.24-93.54,356.73-181.72,40.84-36.2,73.2-81.7,114.34-117.67,178.69-156.26,498.74-169.5,617.48,64.68,16.13-13.87,35.42-24.6,54-34.65,92.42-49.95,273.6-122.66,367.07-48.58,40,31.7,57.04,95.56,54.91,144.69ZM1446.67,502.18c-223.12,25.34-332.45,381.41-205.38,541.27,110.34,138.8,303.93,29.66,375.1-95.19,93.35-163.74,86.98-475.24-169.72-446.09ZM3493.92,509.07c-191.17,11.2-336.87,212.8-350.68,393.13-15.77,205.82,123.06,267.55,259.17,115.86,120.24-134,189.81-320.52,228.42-494.22-1.41-4.15-4.4-4.87-8.28-5.54-35.55-6.17-92.92-11.32-128.63-9.23ZM592.89,914.87c-68.84,20.32-145.41,34.11-207.63,71.53-34.96,21.02-83.52,58-41.58,98.26,49.88,47.89,199,40.26,239.96-19.31,26.89-39.1,28.58-108.66,9.26-150.48Z"/>
  <!-- Fill fades in after stroke completes -->
  <path class="st0-fill" d="M2269.73,566.04c8.17,1.9,5.53-1.45,7.59-4.45,86.71-125.88,203.81-236.38,371.81-195.83,286.37,69.12,66.27,499.61,84.65,683.04,12.35,123.23,198.73,24.02,240.34-32.2-34.01-291.93,169.72-604.78,465.27-657.61,89.22-15.95,237.17-9.59,325.46,13.58,107.4,28.19,49.65,132.04,30.99,202.97-33.66,127.91-65.2,289.52-40.38,420.58,15.81,83.5,53.97,113.43,133.66,132.47,119.13,28.46,331.46,35.23,443.73-16.04,51.94-23.72,85.09-67.15,128.45-89.92,98.32-51.63,170.37,59.97,92.88,140.64-159.39,165.93-533.17,162.25-739.57,108.08-162.71-42.71-194.07-106.56-227.79-260.18-1.04-4.73,2.93-9.88-5.15-8.37-51.01,80.9-108.81,167.12-193.94,215.51-113.77,64.66-262.73,57.95-345.14-51.61-97.26,81.5-266.93,143.9-383.62,69.51-186.11-118.65-6.37-474.66-24.2-651.37-6.42-63.62-59.29-78.36-113.45-58.93-86.72,31.12-171.35,181.82-207.85,263-59.42,132.14-91.1,274.18-128.95,413.55-33.21,71.82-147.7,62.43-166.42-14.6-7.52-30.93-1.27-62.77,3.55-93.68,21.92-140.75,75.48-293.09,84.27-434.35,2.19-35.15,8.89-109.71-39.14-111.12-65.69-1.93-170.12,62.65-218.25,105.87,26.68,195.37-67.62,434.09-232.84,545.44-171.79,115.77-414.87,97.42-536.09-80.18-70.4-103.15-79.38-235.49-60.39-355.94-83.3,43.96-167.79,85.79-257.11,116.48,15.07,104,9.93,217.58-65.2,298.2-133.7,143.47-490.87,126.23-531.49-96.49-38.56-211.43,220.79-260.79,371.04-301.13-74.74-136.2-244.81-253.98-235.55-424.89,4.47-82.51,75.88-147.5,158.98-121.18,59.96,18.99,70.9,75.12,66.28,131.5-2.45,29.89-17.23,58-13.29,88.48,5.6,43.4,99.1,143.26,128.72,185.16,22.71,32.11,42.52,66.13,63.63,99.25,124.96-40.65,257.24-93.54,356.73-181.72,40.84-36.2,73.2-81.7,114.34-117.67,178.69-156.26,498.74-169.5,617.48,64.68,16.13-13.87,35.42-24.6,54-34.65,92.42-49.95,273.6-122.66,367.07-48.58,40,31.7,57.04,95.56,54.91,144.69ZM1446.67,502.18c-223.12,25.34-332.45,381.41-205.38,541.27,110.34,138.8,303.93,29.66,375.1-95.19,93.35-163.74,86.98-475.24-169.72-446.09ZM3493.92,509.07c-191.17,11.2-336.87,212.8-350.68,393.13-15.77,205.82,123.06,267.55,259.17,115.86,120.24-134,189.81-320.52,228.42-494.22-1.41-4.15-4.4-4.87-8.28-5.54-35.55-6.17-92.92-11.32-128.63-9.23ZM592.89,914.87c-68.84,20.32-145.41,34.11-207.63,71.53-34.96,21.02-83.52,58-41.58,98.26,49.88,47.89,199,40.26,239.96-19.31,26.89-39.1,28.58-108.66,9.26-150.48Z"/>
</svg>