<?xml version="1.0" encoding="UTF-8"?>
<svg id="Capa_1" xmlns="http://www.w3.org/2000/svg" version="1.1" viewBox="0 0 512 512">
  <!-- Generator: Adobe Illustrator 29.8.4, SVG Export Plug-In . SVG Version: 2.1.1 Build 6)  -->
  <defs>
    <style>
      .st0 {
        fill: #292c30;
        stroke: #1d1d1b;
        stroke-miterlimit: 10;
      }

      .st1 {
        fill: #dbdbdb;
      }
    </style>
  </defs>
  <rect class="st0" width="512" height="512"/>
  <path class="st1" d="M249.15,242.84c.54.12.36-.1.5-.29,5.68-8.25,13.35-15.49,24.36-12.83,18.76,4.53,4.34,32.73,5.55,44.75.81,8.07,13.02,1.57,15.75-2.11-2.23-19.13,11.12-39.62,30.48-43.08,5.85-1.04,15.54-.63,21.32.89,7.04,1.85,3.25,8.65,2.03,13.3-2.21,8.38-4.27,18.97-2.65,27.56,1.04,5.47,3.54,7.43,8.76,8.68,7.81,1.86,21.72,2.31,29.07-1.05,3.4-1.55,5.57-4.4,8.42-5.89,6.44-3.38,11.16,3.93,6.09,9.21-10.44,10.87-34.93,10.63-48.45,7.08-10.66-2.8-12.71-6.98-14.92-17.05-.07-.31.19-.65-.34-.55-3.34,5.3-7.13,10.95-12.71,14.12-7.45,4.24-17.21,3.8-22.61-3.38-6.37,5.34-17.49,9.43-25.13,4.55-12.19-7.77-.42-31.1-1.59-42.68-.42-4.17-3.88-5.13-7.43-3.86-5.68,2.04-11.23,11.91-13.62,17.23-3.89,8.66-5.97,17.96-8.45,27.09-2.18,4.71-9.68,4.09-10.9-.96-.49-2.03-.08-4.11.23-6.14,1.44-9.22,4.95-19.2,5.52-28.46.14-2.3.58-7.19-2.56-7.28-4.3-.13-11.15,4.1-14.3,6.94,1.75,12.8-4.43,28.44-15.25,35.74-11.26,7.58-27.18,6.38-35.12-5.25-4.61-6.76-5.2-15.43-3.96-23.32-5.46,2.88-10.99,5.62-16.85,7.63.99,6.81.65,14.26-4.27,19.54-8.76,9.4-32.16,8.27-34.82-6.32-2.53-13.85,14.47-17.09,24.31-19.73-4.9-8.92-16.04-16.64-15.43-27.84.29-5.41,4.97-9.66,10.42-7.94,3.93,1.24,4.65,4.92,4.34,8.62-.16,1.96-1.13,3.8-.87,5.8.37,2.84,6.49,9.39,8.43,12.13,1.49,2.1,2.79,4.33,4.17,6.5,8.19-2.66,16.85-6.13,23.37-11.91,2.68-2.37,4.8-5.35,7.49-7.71,11.71-10.24,32.68-11.11,40.46,4.24,1.06-.91,2.32-1.61,3.54-2.27,6.06-3.27,17.93-8.04,24.05-3.18,2.62,2.08,3.74,6.26,3.6,9.48h0ZM195.23,238.66c-14.62,1.66-21.78,24.99-13.46,35.46,7.23,9.09,19.91,1.94,24.58-6.24,6.12-10.73,5.7-31.14-11.12-29.23h0ZM329.36,239.11c-12.52.73-22.07,13.94-22.98,25.76-1.03,13.48,8.06,17.53,16.98,7.59,7.88-8.78,12.44-21,14.97-32.38-.09-.27-.29-.32-.54-.36-2.33-.4-6.09-.74-8.43-.6h0ZM139.29,265.7c-4.51,1.33-9.53,2.23-13.6,4.69-2.29,1.38-5.47,3.8-2.72,6.44,3.27,3.14,13.04,2.64,15.72-1.27,1.76-2.56,1.87-7.12.61-9.86h0Z"/>
</svg>